<svg id="Green_logo" data-name="Green logo" xmlns="http://www.w3.org/2000/svg" width="338.95" height="51.6" viewBox="0 0 338.95 51.6">
  <path id="Path_1" data-name="Path 1" d="M65.535,27.163c0-9.21,6.245-14.32,13.373-14.32a16.441,16.441,0,0,1,6.939,1.388v7.444h-.315L81.81,16.943a6.165,6.165,0,0,0-4.353-1.513c-4.542,0-7.066,3.911-7.066,9.714,0,8.075,3.975,11.418,9.336,11.418a14.134,14.134,0,0,0,6.5-1.577l.693,1.325a13.924,13.924,0,0,1-9.462,3.659c-8.011,0-11.923-5.93-11.923-12.806" transform="translate(3.483 0.682)" fill="#00f7a8"/>
  <path id="Path_2" data-name="Path 2" d="M102.788,35.615V24.163c-5.363.379-10.158,3.649-10.158,7.875a4.379,4.379,0,0,0,4.1,4.65,19.408,19.408,0,0,0,6.056-1.073m8.515.884v2.838h-8.515V36.751c-2.966,2.019-5.552,3.217-8.328,3.217-3.722,0-6.308-3.513-6.308-7.109,0-5.8,6.107-9.86,14.637-9.86,0-4.984-1.136-6.751-5.742-6.751a12.684,12.684,0,0,0-7.317,2.4l-.82-1.514c2.9-2.775,5.805-4.289,9.842-4.289,5.109,0,8.454,2.965,8.454,8.264V36.183l.314.316Z" transform="translate(4.686 0.682)" fill="#00f7a8"/>
  <path id="Path_3" data-name="Path 3" d="M270.1,35.615V24.163c-5.362.379-10.157,3.649-10.157,7.875a4.379,4.379,0,0,0,4.1,4.65,19.4,19.4,0,0,0,6.056-1.073m8.516.884v2.838H270.1V36.751c-2.965,2.019-5.551,3.217-8.327,3.217-3.722,0-6.308-3.513-6.308-7.109,0-5.8,6.106-9.86,14.636-9.86,0-4.984-1.135-6.751-5.741-6.751a12.684,12.684,0,0,0-7.317,2.4l-.82-1.514c2.9-2.775,5.8-4.289,9.841-4.289,5.11,0,8.454,2.965,8.454,8.264V36.183l.315.316Z" transform="translate(13.579 0.682)" fill="#00f7a8"/>
  <path id="Path_4" data-name="Path 4" d="M130.822,13.288v4.605a16.321,16.321,0,0,0-3.217-.316,29.977,29.977,0,0,0-6.623.884V36.187l.315.315h4.732v2.839H112.465V36.5h3.784l.316-.315V19.029l-4.226-2.019v-.316l7.633-3.91.378.189.631,4.289c2.65-1.955,6.182-4.415,8.263-4.415a2.9,2.9,0,0,1,1.578.441" transform="translate(5.972 0.68)" fill="#00f7a8"/>
  <path id="Path_5" data-name="Path 5" d="M152.154,27.719c0-5.867-2.207-10.472-7.7-10.472a27.742,27.742,0,0,0-6.94.883V35.6a8.724,8.724,0,0,0,6.689,2.523c5.55,0,7.948-3.722,7.948-10.408m4.856-1.388c0,7.317-4.163,14.32-13.626,14.32A25.4,25.4,0,0,1,133.1,38.57V6.308l-4.226-2.019V3.975L137.14,0l.377.19V17.058c3.03-1.829,6.309-3.532,9.589-3.532,6.246,0,9.9,6.308,9.9,12.805" transform="translate(6.851)" fill="#00f7a8"/>
  <path id="Path_6" data-name="Path 6" d="M179.349,27.479c0-6.939-3.722-12.111-8.642-12.111-4.163,0-7.444,3.09-7.444,9.9,0,6.625,3.532,12.177,8.642,12.177,4.353,0,7.444-3.217,7.444-9.967m-20.943-.568c0-7.507,4.92-14.068,13.31-14.068,7.129,0,12.554,4.858,12.554,13.059,0,7.443-4.984,14.067-13.183,14.067-7.318,0-12.68-4.92-12.68-13.058" transform="translate(8.42 0.682)" fill="#00f7a8"/>
  <path id="Path_7" data-name="Path 7" d="M214.442,36.5V39.34H201.511V36.5h4.1l.316-.316V24.2c0-5.426-1.135-7.317-5.8-7.317a33.8,33.8,0,0,0-7,.883v18.42l.316.316h4.1V39.34H184.6V36.5h3.785l.316-.316V19.028l-4.227-2.019v-.315l7.633-3.911.379.19.5,3.6c3.722-2.4,6.686-3.722,9.147-3.722,5.678,0,8.2,2.65,8.2,7.381v15.96l.315.316Z" transform="translate(9.806 0.68)" fill="#00f7a8"/>
  <path id="Path_8" data-name="Path 8" d="M236.264,27.04c0-5.867-2.207-10.472-7.7-10.472a25.4,25.4,0,0,0-7,1.135V33.536c1.2,2.46,3.784,3.911,7.065,3.911,4.92,0,7.633-4.037,7.633-10.408m4.857-1.388c0,7.192-4.794,14.32-13.121,14.32a13.273,13.273,0,0,1-6.434-1.513v9.308l.315.315h4.731V50.92H213.049V48.081h3.785l.316-.315V19.028l-4.226-2.019v-.315l7.632-3.911.379.189.568,3.6c3.091-2.019,6.056-3.722,9.588-3.722,6.308,0,10.03,6.308,10.03,12.805" transform="translate(11.317 0.68)" fill="#00f7a8"/>
  <path id="Path_9" data-name="Path 9" d="M240.969,37.182h3.785l.315-.316V6.308l-4.226-2.018V3.975L249.107,0l.378.19V36.866l.316.316h4.1V40.02H240.969Z" transform="translate(12.802)" fill="#00f7a8"/>
  <path id="Path_10" data-name="Path 10" d="M278.614,27.163c0-9.21,6.245-14.32,13.373-14.32a16.441,16.441,0,0,1,6.939,1.388v7.444h-.315l-3.722-4.732a6.165,6.165,0,0,0-4.353-1.513c-4.542,0-7.066,3.911-7.066,9.714,0,8.075,3.975,11.418,9.336,11.418a14.134,14.134,0,0,0,6.5-1.577L300,36.31a13.924,13.924,0,0,1-9.462,3.659c-8.011,0-11.923-5.93-11.923-12.806" transform="translate(14.81 0.682)" fill="#00f7a8"/>
  <path id="Path_11" data-name="Path 11" d="M305.562,23h12.49c-.126-5.236-2.082-7.633-5.488-7.633-3.028,0-6.372,1.956-7,7.633m17.284,2.271H305.435c.063,8.264,4.353,11.292,10.03,11.292a14.127,14.127,0,0,0,6.5-1.577l.694,1.324a14.609,14.609,0,0,1-9.777,3.66c-7.7,0-12.3-5.8-12.3-13,0-9.272,6.686-14.193,12.427-14.193,5.235,0,9.967,3.091,9.967,10.345,0,.7-.063,1.388-.126,2.145" transform="translate(15.978 0.68)" fill="#00f7a8"/>
  <path id="Path_12" data-name="Path 12" d="M10.885,13.106a18.964,18.964,0,0,1,26.576,0V5.749a24.785,24.785,0,0,0-26.576,0Z" transform="translate(0.578 0.1)" fill="#00f7a8"/>
  <path id="Path_13" data-name="Path 13" d="M36.35,39.346h7.357a24.785,24.785,0,0,0,0-26.576H36.35a18.964,18.964,0,0,1,0,26.576" transform="translate(1.933 0.678)" fill="#00f7a8"/>
  <path id="Path_14" data-name="Path 14" d="M3.864,12.77a24.781,24.781,0,0,0,0,26.576h7.357a18.964,18.964,0,0,1,0-26.576Z" transform="translate(0 0.678)" fill="#00f7a8"/>
  <path id="Path_15" data-name="Path 15" d="M37.461,38.235a18.964,18.964,0,0,1-26.576,0v7.356a24.783,24.783,0,0,0,26.576,0Z" transform="translate(0.578 2.031)" fill="#00f7a8"/>
</svg>
